<svg xmlns="http://www.w3.org/2000/svg" viewBox="0 0 444.34 444.34"><defs><style>.cls-1{fill:#fff;}</style></defs><g id="Layer_2" data-name="Layer 2"><g id="Layer_1-2" data-name="Layer 1"><path class="cls-1" d="M444.34,210.09v24.43c-.2,2.08-.43,4.16-.59,6.24a213.92,213.92,0,0,1-7.62,42.31,222.9,222.9,0,0,1-134.82,147,216.86,216.86,0,0,1-56.69,13.34l-10.11.94H210.09c-2.08-.19-4.16-.42-6.24-.58a210.23,210.23,0,0,1-43-7.84c-43.22-12.65-79.5-36.12-108.49-70.56C20,326.94,2.82,282.41.26,232.3a215.12,215.12,0,0,1,2-41.5A222,222,0,0,1,92.79,41.74C128.55,16.07,168.56,2.37,212.5.25A220.61,220.61,0,0,1,325.72,25.62q77.1,41.57,106.66,124.12A204.58,204.58,0,0,1,443,196.5C443.5,201,443.9,205.56,444.34,210.09Zm-28.63,12.33c-.17-107-86.38-193.36-193.2-193.47a193.36,193.36,0,1,0-.42,386.71C329.1,415.77,415.42,329.32,415.71,222.42Z"/><path class="cls-1" d="M225.3,283.83h-22c-1.09,0-2.17,0-2.17-1.55,0-10-.33-19.95,1.23-29.89,2.42-15.44,9.87-28,20.73-39,7.92-8,16.7-15,25.29-22.19,5.44-4.56,10.87-9.12,15.88-14.15a33.15,33.15,0,0,0,.43-46.95c-7.59-8-17-12-27.79-13.16-8.16-.88-16.25-.66-24.19,1.65C198,122.86,188.13,132.45,182,146.22a76.19,76.19,0,0,0-4.71,14.19c-.41,1.8-1,2.47-3.12,2.2-14.53-1.89-29.09-3.6-43.64-5.37-2.72-.33-2.93-.61-2.64-3.4C131,125,146.16,104,170.52,89.24c12-7.3,25.39-10.95,39.33-12.56,18.57-2.13,36.92-1.08,54.92,4.15a89,89,0,0,1,48.07,33.61c17.65,24,19,57.8-3.31,83-9.93,11.21-21,21.21-32.37,30.86a228.85,228.85,0,0,0-17.56,16.13c-6.08,6.35-8.77,13.94-9.48,22.51-.4,4.93-.34,9.86-.61,14.78-.09,1.63-.64,2.13-2.2,2.12C240,283.8,232.63,283.83,225.3,283.83Z"/><path class="cls-1" d="M225.82,305.8c7.46,0,14.92,0,22.38,0,1.68,0,2.3.52,2.3,2.21q-.06,22.38,0,44.77c0,1.68-.62,2.21-2.3,2.21q-22.38-.07-44.77,0c-1.74,0-2.37-.51-2.36-2.3q.08-22.31,0-44.59c0-1.8.62-2.32,2.36-2.31C210.89,305.84,218.36,305.8,225.82,305.8Z"/></g></g></svg>