<svg xmlns="http://www.w3.org/2000/svg" viewBox="0 0 444.33 444.33"><defs><style>.cls-1{fill:#fff;}</style></defs><g id="Layer_2" data-name="Layer 2"><g id="Layer_1-2" data-name="Layer 1"><g id="Layer_2-2" data-name="Layer 2"><g id="Layer_1-2-2" data-name="Layer 1-2"><path class="cls-1" d="M444.33,210.07V234.5c-.2,2.08-.43,4.16-.59,6.24a213.33,213.33,0,0,1-7.62,42.31,222.88,222.88,0,0,1-134.82,147,216.77,216.77,0,0,1-56.69,13.34l-10.11.94H210.08c-2.08-.19-4.16-.42-6.24-.58a210.29,210.29,0,0,1-43-7.84c-43.22-12.65-79.5-36.12-108.49-70.56C20,326.92,2.81,282.39.25,232.28a215.76,215.76,0,0,1,2-41.5A222,222,0,0,1,92.78,41.72C128.54,16.05,168.55,2.35,212.49.23A220.55,220.55,0,0,1,325.71,25.6q77.1,41.56,106.66,124.12A204.4,204.4,0,0,1,443,196.48C443.49,201,443.89,205.54,444.33,210.07ZM415.7,222.4C415.53,115.4,329.32,29,222.5,28.93c-106.78-.88-194.06,85-194.94,191.77s85,194.06,191.77,194.94h2.75C329.09,415.75,415.41,329.3,415.7,222.4Z"/></g><path class="cls-1" d="M143.34,222.72q0-50.61,0-101.2c0-8.16,0-8.19,8.4-8.21,13.67,0,27.34.12,41-.06,4.73-.06,6.65,1.57,6.64,6.47q-.15,103.6,0,207.19c0,4.46-1.48,6.45-6.16,6.39-14.55-.16-29.12-.19-43.67,0-5,.06-6.29-2.09-6.27-6.74C143.4,292,143.34,257.34,143.34,222.72Z"/><path class="cls-1" d="M308.22,223.85q0,50.6,0,101.19c0,8.17,0,8.2-8.4,8.21-13.67,0-27.34-.11-41,.07-4.73.06-6.65-1.57-6.64-6.47q.14-103.59,0-207.19c0-4.45,1.48-6.45,6.16-6.4q21.84.26,43.67,0c5-.07,6.3,2.07,6.28,6.74C308.15,154.61,308.22,189.23,308.22,223.85Z"/></g></g></g></svg>