<svg xmlns="http://www.w3.org/2000/svg" viewBox="0 0 917.27 917.93"><defs><style>.cls-1{fill:#fff;}</style></defs><g id="Layer_2" data-name="Layer 2"><g id="Layer_1-2" data-name="Layer 1"><path class="cls-1" d="M348.83,376.47h238.8q144.61,0,289.22,0c28.59,0,40.36,11.65,40.37,40.19q.09,230.45,0,460.88c0,28.66-11.72,40.33-40.23,40.33q-396,0-792.07,0c-27.24,0-39.43-12.23-39.44-39.25,0-146.78-.55-293.57.41-440.34.2-30.56-7.52-59-14.47-87.85C21.76,310.29,11.6,270.23,1.73,230.1c-5.73-23.32,2.73-37.39,26-42.95q343.17-82,686.36-163.83,45.78-10.93,91.56-21.93c21.16-5,36.2,3.76,41.47,24.76,15.06,60,29.33,120.16,45.15,179.93,6.64,25.1-6.16,41.07-28.08,46.19-109.52,25.58-218.85,52-328.25,78.06q-89.75,21.42-179.5,42.88c-2.67.64-5.33,1.36-8,2.05ZM481.52,612.39q-181,0-361.93-.2c-9.49,0-12.1,2.64-12,12.08.37,73.07.19,146.14.21,219.21,0,12.08,0,12.14,12.55,12.14q361.45,0,722.93.21c9.51,0,12.07-2.73,12-12.12-.37-73.07-.2-146.14-.21-219.21,0-12.07,0-12.09-12.52-12.09ZM196.71,218.31c.58-4.6.76-8.3-6-6.67q-57.91,14-115.91,27.67c-4.79,1.14-6.4,3.47-5.07,8.73q14.6,57.78,28.63,115.69c1.35,5.57,4,6.67,9.38,5.3q32-8.08,64.28-15.42c6.55-1.5,9.24-4.86,9.52-11.55.31-7.41,1.76-14.78,2.67-22.16Q190.47,269.11,196.71,218.31Zm505.76,8.5c.92-.15,1.85-.24,2.75-.45,37.72-9,75.42-18.12,113.17-27,5.93-1.4,7.36-4.21,5.9-10Q810,133,796.2,76.46c-1.5-6.15-4.38-8.32-10.53-6.8-21.39,5.26-42.79,10.48-64.25,15.44-5.12,1.19-6.95,3.82-7.47,8.91-1.26,12.33-3.23,24.59-4.76,36.9-3.75,30.15-7.4,60.32-11.15,90.47C697.6,224.94,697.45,227.88,702.47,226.81Zm87.94,324.48c18.65,0,37.29-.18,55.93.1,6.35.09,8.85-2,8.8-8.55q-.35-48,0-96c0-6-2-8.31-8.13-8.25q-35.41.32-70.84,0c-5.14,0-7.92,1.87-9.72,6.64q-18.78,49.68-37.92,99.22c-2.25,5.79-.46,7,5,6.92C752.5,551.17,771.46,551.29,790.41,551.29ZM172.91,438.67c-18.63,0-37.27.21-55.9-.11-6.67-.11-9.43,1.83-9.37,8.95.28,31.67.22,63.36,0,95,0,6.25,1.82,8.92,8.49,8.83,23.3-.28,46.59-.23,69.88,0,5.49,0,8.4-1.84,10.36-7Q214.92,495.1,234,446.06c2.35-6,1-7.57-5.2-7.48C210.19,438.83,191.55,438.67,172.91,438.67ZM649.56,110.5c1-5.81-.65-8.19-7.61-6.44q-35.24,8.89-70.7,16.8c-6,1.34-7.76,4.32-8.44,10.11C558,172.6,553,214.21,547.41,255.75c-1.1,8.21,1.47,8.14,7.79,6.53,18.06-4.59,36.23-8.74,54.35-13.12,22.69-5.48,23.16-5.43,26.25-28.3C640.75,184.25,645,147.55,649.56,110.5Zm-150.9,35.31c1.19-5.76-1.55-7.31-7.81-5.77-23.81,5.82-47.68,11.4-71.53,17.05-4.37,1-6.81,3.29-7.39,8.18q-7.43,63.3-15.35,126.53c-.84,6.66.52,8.28,7.26,6.59,22.87-5.74,45.81-11.25,68.85-16.26,7.93-1.72,10.39-6.09,11.06-13.5,1.23-13.58,3.18-27.1,4.84-40.64C491.9,200.9,495.23,173.82,498.66,145.81ZM245.78,325.53c-1,7.39,1,10.38,9.29,8.28,22.25-5.65,44.62-10.87,67-15.84,7.3-1.62,9.94-5.33,10.61-12.71,1.64-17.9,4.29-35.7,6.5-53.55,2.74-22.16,5.51-44.31,8.12-66.48.66-5.6,1-11.12-7.88-8.95q-35.26,8.61-70.64,16.77c-5.33,1.24-7.68,4.16-8.06,9.67-.57,8.35-1.79,16.65-2.82,25Q251.89,276.61,245.78,325.53Zm58.89,225.73c12.42,0,24.84-.15,37.25.08,5.1.09,7.85-1.82,9.68-6.66q18.56-49.21,37.59-98.25c2.08-5.34,2-7.93-4.86-7.86q-36.79.36-73.58,0c-6-.06-8.86,2.4-10.89,7.8-12,31.95-24.09,63.89-36.63,95.63-3.26,8.27-.49,9.61,7,9.37C281.68,551,293.18,551.27,304.67,551.26ZM502.38,438.67c-12.42,0-24.84.11-37.26-.06-4.61-.06-7.47,1.46-9.19,6q-18.82,49.63-38,99.13c-2.28,5.9-.51,7.67,5.56,7.62q36.79-.3,73.6,0c5.08,0,8-1.78,9.82-6.56q18.81-49.63,37.91-99.15c2.19-5.66.31-7.12-5.18-7C527.23,438.8,514.81,438.66,502.38,438.67ZM614.7,551.28c12.45,0,24.89-.12,37.33.06,4.86.08,8.17-1.1,10.07-6.14q18.79-49.74,38-99.32c2.07-5.36.54-7.31-5.17-7.28q-37.33.22-74.65,0c-4.75,0-7.34,1.86-9,6.3q-18.84,49.71-38,99.3c-2.08,5.38-.7,7.28,5.09,7.15C590.44,551.1,602.57,551.29,614.7,551.28Z"/></g></g></svg>