<svg xmlns="http://www.w3.org/2000/svg" viewBox="0 0 511.35 384.12"><defs><style>.cls-1{fill:#fff;}</style></defs><g id="Layer_2" data-name="Layer 2"><g id="Layer_1-2" data-name="Layer 1"><path class="cls-1" d="M511.35,371.64c-3.58,9-10.1,12.56-19.87,12.48-37.91-.32-75.82-.14-113.73-.16-11.62,0-18.41-6.59-18.42-18.11q-.07-78.08,0-156.14c0-11.49,6.81-18.06,18.46-18.06,38.07,0,76.15.18,114.23-.14,9.67-.08,15.84,3.73,19.33,12.46ZM436,224.3v0c-8.64,0-17.29-.15-25.94,0-6.59.15-11,4.46-10.87,10,.19,5.85,4.29,9.38,11.13,9.44,8.48.06,17,0,25.44.1,2,0,5-1,5.9,1.25.76,1.91-1.93,3.2-3.26,4.58C432.3,256.07,426,262.24,420,268.64c-3.06,3.25-4.14,7.14-2.14,11.5s5.64,5.65,10.2,5.55a36.54,36.54,0,0,1,16.54,3,13.07,13.07,0,0,1,6.92,17.1c-2.38,6.05-9.64,9.71-17.39,8.93-7.52-.76-13.93-3.8-19.91-8.39-6.78-5.22-15.18-2.46-17.64,5.39-1.52,4.87.58,9.39,6.74,13.67,12.66,8.81,26.72,11.2,41.79,9C462,331.9,474,318.76,475,301.41c.92-15.85-7.58-26.54-24.86-31.26-4.73-1.29-4.88-1.7-1.37-5.11,6.92-6.71,14-13.28,20.82-20.07,3.91-3.88,5.86-8.62,3.73-14.07s-7.23-6.46-12.37-6.56C452.66,224.19,444.35,224.3,436,224.3Z"/><path class="cls-1" d="M175.63,192V20.89c0-1.67,0-3.33,0-5C175.91,6.8,182.32.11,191.48.08q64.35-.15,128.72,0C329.78.11,336,6.87,336,16.85q.09,81.08,0,162.15,0,93,0,186.1c0,13.06-5.79,18.86-18.83,18.87q-61.87,0-123.74,0c-11.7,0-17.8-6.08-17.8-17.85q0-87.06,0-174.12Zm95-103.62h0c0-14.62.07-29.23,0-43.85,0-7.35-6-12.69-13-11.67-9.06,1.31-17.76,4.23-26.37,7.2-4.81,1.66-6.87,6.6-5.65,11.42a10.11,10.11,0,0,0,11.07,7.26c2-.27,3.88-.88,5.82-1.33,5.4-1.28,5.77-1,5.78,4.38,0,22.92,0,45.84,0,68.75,0,7.65,4.9,13.18,11.4,13.05s11-5.46,11-12.86Q270.63,109.57,270.59,88.4Z"/><path class="cls-1" d="M152.43,240.24q0,62.1,0,124.19c0,14-5.63,19.55-19.72,19.56Q75.36,384,18,384c-11.87,0-18-6.2-18-18.23Q0,239.8,0,113.87c0-11.72,6.12-18,17.7-18q58.85-.07,117.7,0c10.53,0,17,6.53,17,17.22q.06,63.59,0,127.17ZM69.8,219.32c.91-3,2.74-3.75,4.12-4.85,7-5.58,14.2-11,21.15-16.66,5.81-4.73,11.32-9.81,15.26-16.31,8.27-13.69,7.47-39.35-12.72-48.57-16.83-7.69-40.6-5.55-54.29,10.77-4.58,5.46-4.77,11.31-.28,15.58,4.28,4.07,10.56,3.63,15.58-1.14,3.14-3,6.3-5.93,10.44-7.52,7.11-2.74,14.63-1.42,19,3.32S92.88,167,89.28,173.6A43.28,43.28,0,0,1,78.5,185.92c-12.28,10.18-24.66,20.26-36.88,30.52-5.93,5-8,10.84-5.63,16.23,2.72,6.24,8.47,6.85,14.3,6.87,17.28,0,34.57,0,51.86,0a47.64,47.64,0,0,0,5.48-.12c5.79-.69,9.32-4.42,9.41-9.74s-3.66-9.65-9.46-10.25c-3-.3-6-.11-9-.12Z"/></g></g></svg>