<svg xmlns="http://www.w3.org/2000/svg" viewBox="0 0 690.57 637.46"><defs><style>.cls-1,.cls-2{fill:#e94e1b;stroke:#e94e1b;stroke-miterlimit:10;}.cls-1{stroke-width:12px;}.cls-2{stroke-width:2px;}</style></defs><g id="Layer_2" data-name="Layer 2"><g id="Layer_1-2" data-name="Layer 1"><path class="cls-1" d="M475.3,591.16c30.26,0,58.74,0,87.22,0,31.66,0,63.32-.11,95,.2,13.52.13,27.16,3.33,27.08,19.81s-13.34,19.57-27.13,19.56c-116.79-.08-233.63,2.17-350.34-.85C147.8,625.76,20.81,501.2,7.12,341.67-8,165.74,131.51,18.09,295.39,6.74c165.87-11.5,327.46,112.7,334.13,300.7C633.48,419,586,508.92,494.68,574.6,488.61,579,480.9,581.38,475.3,591.16Zm-158.52-.24c152.29.21,274-120.82,274.07-272.65C591,167,468.5,44.06,317.57,44.05,168.12,44.05,44.5,167.13,44,316.41,43.54,467.83,165.64,590.71,316.78,590.92Z"/><path class="cls-1" d="M318.38,553.77C190.3,553.46,83.12,445.42,84.12,317.63c1-127.45,108.17-234,235.11-233.78,128.31.23,235,107.25,234.88,235.64S447.21,554.08,318.38,553.77Zm.44-36.06c111,.17,198.93-87.11,199.21-197.77S430.25,120,320.66,119.75C209.38,119.5,120.08,208.23,120.11,319,120.13,429.31,208.37,517.55,318.82,517.71Z"/><path class="cls-2" d="M319.2,355.82c35.24-.11,64.17,28.64,63.92,63.53-.24,34.11-28.8,62.42-63.13,62.59-35.73.18-64.84-27.83-65.07-62.61S283.74,355.92,319.2,355.82Zm30.64,62.36c-.3-17.55-14.89-31.64-31.91-30.82-16.41.79-29.72,14.82-29.86,31.47-.15,17.47,14.2,32,31.28,31.72S350.14,435.82,349.84,418.18Z"/><path class="cls-2" d="M155.2,319c.1-34.85,29.16-64.21,63.85-64.5,33.76-.29,64.54,31,63.79,64.77-.79,35-30.2,63.64-65,63.27C183.92,382.17,155.11,352.93,155.2,319Zm63.7-31.58c-17.47.22-30.77,14.12-30.51,31.9.26,18,12.1,29.91,29.88,30s32.09-13.5,32-30.55C250.26,301.33,236.09,287.19,218.9,287.41Z"/><path class="cls-2" d="M383.08,218.71c0,33.6-29.33,63.34-62.85,63.78-34.18.45-65-29.54-65.23-63.52-.25-34.34,29.27-64,64-64.36C353.26,154.28,383.11,184.13,383.08,218.71Zm-64.2-30.88c-17.78.12-31.16,13.76-30.86,31.43a31.13,31.13,0,0,0,30.38,30.47c17.36.33,31.2-13.36,31.43-31.09C350.07,200.17,337.54,187.7,318.88,187.83Z"/><path class="cls-2" d="M356.45,318.49c.14-35.64,28.7-64.36,63.59-63.94,35.06.42,62.78,29.28,62.54,65.09-.24,34.31-28.65,62.76-62.8,62.89C384.83,382.66,356.32,353.83,356.45,318.49Zm94.57.69c.52-16-13.19-30.67-29.67-31.69-17.73-1.09-33.57,13.65-33.73,31.38-.14,16.07,13.78,29.87,30.66,30.37C436.13,349.76,450.45,336.62,451,319.18Z"/><path class="cls-2" d="M348.94,319.14c-.32,17.06-13.68,29.81-30.73,29.33-16.63-.47-29.42-14.37-28.78-31.28.61-16.12,13.39-28.28,29.82-28.37A29.47,29.47,0,0,1,348.94,319.14Z"/></g></g></svg>