<svg xmlns="http://www.w3.org/2000/svg" viewBox="0 0 779.13 307.05"><defs><style>.cls-1,.cls-2{fill:#fff;}.cls-2{font-size:104.68px;font-family:FuturaBT-ExtraBlackCondItalic, Futura XBlkCnIt BT;font-weight:900;font-style:italic;}.cls-3{letter-spacing:0.03em;}.cls-4{letter-spacing:-0.05em;}.cls-5{letter-spacing:0em;}</style></defs><g id="Layer_2" data-name="Layer 2"><g id="Layer_1-2" data-name="Layer 1"><path class="cls-1" d="M4.86,238.59l19-119.4H52q26.5,0,36.52,7t10,23.72q0,14.64-6.34,24T73.89,186.33l14.72,52.26H53.28l-7.52-48.25-7.53,48.25Zm43.92-66.16h1.8q7.61,0,11.7-4.78t4.09-13.79c0-3.43-.88-6-2.62-7.6s-4.45-2.45-8.1-2.45a10.2,10.2,0,0,0-1.1.08c-.52.05-.94.08-1.27.08Z"/><path class="cls-1" d="M95,238.59l19-119.4H173.1l-4.58,28.95H142.75l-2.53,15.21h23.31l-4.34,28H135.88l-2.7,16.44H159l-4.91,30.83Z"/><path class="cls-1" d="M165.65,238.59l19-119.4h59.13l-4.58,28.95H213.41l-2.53,15.21h23.31l-4.34,28H206.54l-2.69,16.44h25.84l-4.91,30.83Z"/><path class="cls-1" d="M236.31,238.59l19-119.4h33.45L274.51,209H299l-4.66,29.6Z"/><path class="cls-1" d="M304,238.59l19-119.4h28.13q26.51,0,36.52,7t10,23.72q0,14.64-6.34,24T373,186.33l14.72,52.26H352.37l-7.53-48.25-7.52,48.25Zm43.92-66.16h1.8q7.6,0,11.69-4.78t4.09-13.79c0-3.43-.87-6-2.61-7.6s-4.45-2.45-8.1-2.45a10,10,0,0,0-1.1.08c-.52.05-.95.08-1.27.08Z"/><path class="cls-1" d="M436,241Q419,241,408.72,228.7t-10.31-32.63a121.66,121.66,0,0,1,4.3-32.31q4.29-15.7,11.65-26.33A48.47,48.47,0,0,1,431,122.05,44.86,44.86,0,0,1,452.55,117Q469.82,117,480,129t10.14,32.84a121.31,121.31,0,0,1-4.25,32.22q-4.24,15.54-11.7,26.42a46.55,46.55,0,0,1-16.47,15.33A45.21,45.21,0,0,1,436,241Zm-4-42.2c0,4.47.6,7.72,1.8,9.77a6.16,6.16,0,0,0,5.73,3.07,8,8,0,0,0,6.09-2.79q2.58-2.77,4.62-8.91a111.28,111.28,0,0,0,4.38-19.18,146.13,146.13,0,0,0,1.67-21.39q0-6.71-1.71-9.85a5.67,5.67,0,0,0-5.32-3.15,8.7,8.7,0,0,0-6.5,2.74q-2.65,2.74-4.54,8.79a125.48,125.48,0,0,0-4.46,19.63A139.92,139.92,0,0,0,431.94,198.77Z"/><path class="cls-1" d="M495.08,195.9l12-76.71h33.54l-12.76,79.9c-.11.66-.19,1.26-.25,1.8s-.08,1.18-.08,1.88a6.08,6.08,0,0,0,6.54,6.55,7.84,7.84,0,0,0,6.18-2.54q2.25-2.53,3.07-7.69L556,119.19h33.37l-12.19,76.63-.24,1.23q-3.53,21.75-10.72,30.34a35.12,35.12,0,0,1-14.51,10.3q-8.79,3.45-20.82,3.44-18.81,0-27.88-7.89t-9.08-24.09c0-1.74.08-3.65.24-5.72S494.64,198.85,495.08,195.9Z"/><path class="cls-1" d="M631.42,238.59H597.89L612,149.45H592.08l4.82-30.26h73.2l-4.82,30.26h-19.8Z"/><path class="cls-1" d="M661.92,238.59l19-119.4H740l-4.58,28.95H709.69l-2.54,15.21h23.31l-4.34,28h-23.3l-2.7,16.44H726l-4.91,30.83Z"/><polygon class="cls-1" points="724.03 269.09 0 269.09 3.67 245.98 727.67 245.98 724.03 269.09"/><path class="cls-1" d="M727.67,246l6-38.22,44.76,47.76a2.55,2.55,0,0,1-.27,3.74l-60.1,47.79,6-38"/><text class="cls-2" transform="translate(106.37 89.66)">HOW TO P<tspan class="cls-3" x="414.28" y="0">L</tspan><tspan class="cls-4" x="459.77" y="0">A</tspan><tspan class="cls-5" x="507.87" y="0">Y</tspan></text></g></g></svg>