<svg xmlns="http://www.w3.org/2000/svg" viewBox="0 0 779.13 190.07"><defs><style>.cls-1{fill:#fff;}</style></defs><g id="Layer_2" data-name="Layer 2"><g id="Layer_1-2" data-name="Layer 1"><path class="cls-1" d="M4.86,121.61l19-119.4H52q26.5,0,36.52,7t10,23.72q0,14.64-6.34,24T73.89,69.35l14.72,52.26H53.28L45.76,73.36l-7.53,48.25ZM48.78,55.45h1.8q7.61,0,11.7-4.78t4.09-13.79c0-3.43-.88-6-2.62-7.6s-4.45-2.45-8.1-2.45a10.2,10.2,0,0,0-1.1.08c-.52.05-.94.08-1.27.08Z"/><path class="cls-1" d="M95,121.61,114,2.21H173.1l-4.58,29H142.75l-2.53,15.21h23.31l-4.34,28H135.88l-2.7,16.44H159l-4.91,30.83Z"/><path class="cls-1" d="M165.65,121.61l19-119.4h59.13l-4.58,29H213.41l-2.53,15.21h23.31l-4.34,28H206.54l-2.69,16.44h25.84l-4.91,30.83Z"/><path class="cls-1" d="M236.31,121.61l19-119.4h33.45L274.51,92H299l-4.66,29.6Z"/><path class="cls-1" d="M304,121.61l19-119.4h28.13q26.51,0,36.52,7t10,23.72q0,14.64-6.34,24T373,69.35l14.72,52.26H352.37l-7.53-48.25-7.52,48.25Zm43.92-66.16h1.8q7.6,0,11.69-4.78t4.09-13.79c0-3.43-.87-6-2.61-7.6s-4.45-2.45-8.1-2.45a10,10,0,0,0-1.1.08c-.52.05-.95.08-1.27.08Z"/><path class="cls-1" d="M436,124q-16.92,0-27.23-12.27T398.41,79.09a121.66,121.66,0,0,1,4.3-32.31q4.29-15.7,11.65-26.33A48.47,48.47,0,0,1,431,5.07,44.86,44.86,0,0,1,452.55,0Q469.82,0,480,12.06T490.09,44.9a121.31,121.31,0,0,1-4.25,32.22q-4.24,15.54-11.7,26.42a46.55,46.55,0,0,1-16.47,15.33A45.21,45.21,0,0,1,436,124Zm-4-42.2c0,4.47.6,7.72,1.8,9.77a6.16,6.16,0,0,0,5.73,3.06,8,8,0,0,0,6.09-2.78q2.58-2.78,4.62-8.91a111.28,111.28,0,0,0,4.38-19.18,146.24,146.24,0,0,0,1.67-21.39q0-6.7-1.71-9.85a5.67,5.67,0,0,0-5.32-3.15,8.7,8.7,0,0,0-6.5,2.74q-2.65,2.74-4.54,8.79a125.48,125.48,0,0,0-4.46,19.63A139.92,139.92,0,0,0,431.94,81.79Z"/><path class="cls-1" d="M495.08,78.92l12-76.71h33.54l-12.76,79.9c-.11.66-.19,1.26-.25,1.8s-.08,1.17-.08,1.88a6.06,6.06,0,0,0,6.54,6.54,7.84,7.84,0,0,0,6.18-2.53q2.25-2.53,3.07-7.69L556,2.21h33.37L577.19,78.84,577,80.07q-3.53,21.75-10.72,30.34a35.12,35.12,0,0,1-14.51,10.3,57.11,57.11,0,0,1-20.82,3.44q-18.81,0-27.88-7.89t-9.08-24.09c0-1.74.08-3.65.24-5.72S494.64,81.87,495.08,78.92Z"/><path class="cls-1" d="M631.42,121.61H597.89L612,32.47H592.08L596.9,2.21h73.2l-4.82,30.26h-19.8Z"/><path class="cls-1" d="M661.92,121.61l19-119.4H740l-4.58,29H709.69l-2.54,15.21h23.31l-4.34,28h-23.3l-2.7,16.44H726l-4.91,30.83Z"/><polygon class="cls-1" points="724.03 152.11 0 152.11 3.67 129 727.67 129 724.03 152.11"/><path class="cls-1" d="M727.67,129l6-38.22,44.76,47.76a2.55,2.55,0,0,1-.27,3.74l-60.1,47.79,6-38"/></g></g></svg>